<svg t="1750781799333" class="icon" viewBox="0 0 1024 1024" version="1.1" xmlns="http://www.w3.org/2000/svg"
     p-id="49792" width="200" height="200">
    <path d="M772.8 363.5h-522c-20.6 0-37.3 16.7-37.3 37.3 0 20.6 16.7 37.3 37.3 37.3h522c20.6 0 37.3-16.7 37.3-37.3 0-20.6-16.7-37.3-37.3-37.3z m36.9-186.7H213.1C130.8 176.8 64 243.5 64 325.9v372.8c0 82.4 66.8 149.1 149.1 149.1h596.6c82.4 0 149.1-66.8 149.1-149.1V325.9c0-82.4-66.7-149.1-149.1-149.1z m74.9 522.3c0 41.2-33.4 74.6-74.6 74.6H213.5c-41.2 0-74.6-33.4-74.6-74.6V326.3c0-41.2 33.4-74.6 74.6-74.6h596.6c41.2 0 74.6 33.4 74.6 74.6v372.8z m-410.1-74.6H250.8c-20.6 0-37.3 16.7-37.3 37.3s16.7 37.3 37.3 37.3h223.7c20.6 0 37.3-16.7 37.3-37.3s-16.7-37.3-37.3-37.3z"
          fill="#1B6BFF" p-id="49793"></path>
</svg>