<svg class="icon" viewBox="0 0 1024 1024" version="1.1" xmlns="http://www.w3.org/2000/svg"
     width="200" height="200">
    <path fill="#1B6BFF" d="M512.512 47.616c-254.464 0-460.8 206.336-460.8 460.8s206.336 460.8 460.8 460.8 460.8-206.336 460.8-460.8-206.336-460.8-460.8-460.8z m144.896 445.952v46.592H543.232v64.512h114.176v47.616H543.232v93.696h-58.88v-93.696H365.568v-47.616H483.84V540.16H365.568v-46.592h100.864l-122.88-211.456H409.6c57.856 104.96 92.672 172.032 104.96 200.192h1.024c4.096-11.776 15.872-34.816 34.304-70.144l70.656-130.048h62.464L558.592 494.08h98.816z"
    />
</svg>