<svg class="icon" viewBox="0 0 1024 1024" version="1.1" xmlns="http://www.w3.org/2000/svg"
     width="200" height="200">
    <path d="M512 512m-512 0a512 512 0 1 0 1024 0 512 512 0 1 0-1024 0Z" fill="#1B6BFF" fill-opacity=".2"
    />
    <path d="M512 512m-391.529412 0a391.529412 391.529412 0 1 0 783.058824 0 391.529412 391.529412 0 1 0-783.058824 0Z"
          fill="#1B6BFF"/>
    <path d="M471.491765 728.696471a664.756706 664.756706 0 0 1-4.096-77.312v-65.536h80.896c99.328 0 157.696-54.272 157.696-145.408 0-89.088-55.808-137.728-157.184-137.728h-112.128c-32.768 0-51.2-0.512-75.264-1.536 3.072 24.064 4.096 47.104 4.096 74.752v276.992c0 30.208-1.024 53.248-4.096 75.776h110.08z m-4.096-229.888v-109.056h76.288c36.864 0 56.832 18.432 56.832 53.76s-20.992 55.296-56.832 55.296h-76.288z"
          fill="#FFFFFF"/>
</svg>