<svg class="icon" viewBox="0 0 1024 1024" version="1.1" xmlns="http://www.w3.org/2000/svg"
     width="200" height="200">
    <path d="M512 512m-512 0a512 512 0 1 0 1024 0 512 512 0 1 0-1024 0Z" fill="#999"/>
    <path d="M633.6 499.2c41.6-35.2 70.4-89.6 70.4-147.2 0-105.6-86.4-192-192-192s-192 86.4-192 192c0 60.8 28.8 112 70.4 147.2-108.8 35.2-195.2 118.4-236.8 224 12.8 22.4 28.8 44.8 48 64 35.2-140.8 160-243.2 310.4-243.2s275.2 105.6 310.4 243.2c16-19.2 32-41.6 48-64-41.6-105.6-128-185.6-236.8-224zM512 224c70.4 0 128 57.6 128 128s-57.6 128-128 128-128-57.6-128-128 57.6-128 128-128z"
          fill="#FFFFFF"/>
</svg>