<svg class="icon" viewBox="0 0 1024 1024" version="1.1" xmlns="http://www.w3.org/2000/svg"
     width="200" height="200">
    <path d="M484.1 822.8c-191.3 0-347-155.7-347-347s155.7-347 347-347 347 155.6 347 347-155.7 347-347 347z m0-649.7c-167 0-302.8 135.8-302.8 302.8s135.8 302.8 302.8 302.8 302.8-135.8 302.8-302.8-135.8-302.8-302.8-302.8z"
          fill="#ffffff"/>
    <path d="M640.4 355.8c-6.9 0-13.7-3.2-18-9.3-31.9-44.6-83.6-71.3-138.3-71.3-12.2 0-22.1-9.9-22.1-22.1 0-12.2 9.9-22.1 22.1-22.1 69 0 134.1 33.6 174.3 89.8 7.1 9.9 4.8 23.7-5.1 30.8-4 2.9-8.5 4.2-12.9 4.2z"
          fill="#ffffff"/>
    <path d="M865 896.5c-5.7 0-11.3-2.2-15.6-6.5L702.1 742.7c-8.6-8.6-8.6-22.6 0-31.2s22.6-8.6 31.2 0l147.3 147.3c8.6 8.6 8.6 22.6 0 31.2-4.3 4.3-9.9 6.5-15.6 6.5z"
          fill="#ffffff"/>
</svg>