<svg class="icon" viewBox="0 0 1024 1024" version="1.1" xmlns="http://www.w3.org/2000/svg"
     width="200" height="200">
    <path d="M404.48 474.453333H102.4c-37.546667 0-68.266667-30.72-68.266667-68.266666V104.106667c0-37.546667 30.72-68.266667 68.266667-68.266667h302.08c37.546667 0 68.266667 30.72 68.266667 68.266667v302.08c0 37.546667-30.72 68.266667-68.266667 68.266666zM404.48 988.16H102.4c-37.546667 0-68.266667-30.72-68.266667-68.266667V617.813333c0-37.546667 30.72-68.266667 68.266667-68.266666h302.08c37.546667 0 68.266667 30.72 68.266667 68.266666v302.08c0 37.546667-30.72 68.266667-68.266667 68.266667zM921.6 988.16H619.52c-37.546667 0-68.266667-30.72-68.266667-68.266667V617.813333c0-37.546667 30.72-68.266667 68.266667-68.266666H921.6c37.546667 0 68.266667 30.72 68.266667 68.266666v302.08c0 37.546667-30.72 68.266667-68.266667 68.266667z"
          fill="#1B6BFF"/>
    <path d="M771.413333 256m-218.453333 0a218.453333 218.453333 0 1 0 436.906667 0 218.453333 218.453333 0 1 0-436.906667 0Z"
          fill="#1B6BFF"/>
</svg>