<svg t="1750773652502" class="icon" viewBox="0 0 1024 1024" version="1.1" xmlns="http://www.w3.org/2000/svg" p-id="42809" width="200" height="200"><path d="M849.92 174.08C759.466667 83.626667 640 34.133333 512 34.133333s-247.466667 49.493333-337.92 139.946667C83.626667 264.533333 34.133333 384 34.133333 512s49.493333 247.466667 139.946667 337.92C264.533333 940.373333 384 989.866667 512 989.866667s247.466667-49.493333 337.92-139.946667C940.373333 759.466667 989.866667 640 989.866667 512s-49.493333-247.466667-139.946667-337.92zM512 218.453333c30.72 0 56.32 25.6 56.32 56.32 0 30.72-25.6 56.32-56.32 56.32s-56.32-25.6-56.32-56.32c0-30.72 25.6-56.32 56.32-56.32z m90.453333 552.96H443.733333c-18.773333 0-34.133333-15.36-34.133333-34.133333s15.36-34.133333 34.133333-34.133333h44.373334V455.68H477.866667c-18.773333 0-34.133333-15.36-34.133334-34.133333s15.36-34.133333 34.133334-34.133334h44.373333c18.773333 0 34.133333 15.36 34.133333 34.133334v281.6h44.373334c18.773333 0 34.133333 15.36 34.133333 34.133333s-13.653333 34.133333-32.426667 34.133333z" fill="#333333" p-id="42810"></path></svg>