<svg t="1750761802608" class="icon" viewBox="0 0 1024 1024" version="1.1" xmlns="http://www.w3.org/2000/svg" p-id="23027" width="200" height="200"><path d="M913.066667 452.266667H870.4V716.8c0 17.066667-13.653333 29.013333-29.013333 29.013333H442.026667v40.96c0 42.666667 34.133333 76.8 76.8 76.8h187.733333l59.733333 59.733334c5.12 5.12 11.946667 6.826667 18.773334 6.826666s13.653333-1.706667 18.773333-6.826666l59.733333-59.733334h51.2c42.666667 0 76.8-34.133333 76.8-76.8V529.066667c-1.706667-42.666667-35.84-76.8-78.506666-76.8z" fill="#333333" p-id="23028"></path><path d="M732.16 90.453333H110.933333C68.266667 90.453333 34.133333 124.586667 34.133333 167.253333v440.32c0 42.666667 34.133333 76.8 76.8 76.8h51.2l83.626667 83.626667c5.12 5.12 11.946667 6.826667 18.773333 6.826667s13.653333-1.706667 18.773334-6.826667l83.626666-83.626667h419.84c13.653333 0 25.6-11.946667 25.6-25.6V167.253333c-3.413333-42.666667-37.546667-76.8-80.213333-76.8zM274.773333 421.546667h-22.186666c-18.773333 0-34.133333-15.36-34.133334-34.133334s15.36-34.133333 34.133334-34.133333h22.186666c18.773333 0 34.133333 15.36 34.133334 34.133333s-15.36 34.133333-34.133334 34.133334z m158.72 0H409.6c-18.773333 0-34.133333-15.36-34.133333-34.133334s15.36-34.133333 34.133333-34.133333h22.186667c18.773333 0 34.133333 15.36 34.133333 34.133333s-13.653333 34.133333-32.426667 34.133334z m157.013334 0h-22.186667c-18.773333 0-34.133333-15.36-34.133333-34.133334s15.36-34.133333 34.133333-34.133333h22.186667c18.773333 0 34.133333 15.36 34.133333 34.133333s-15.36 34.133333-34.133333 34.133334z" fill="#333333" p-id="23029"></path></svg>