<svg t="1750762002406" class="icon" viewBox="0 0 1024 1024" version="1.1" xmlns="http://www.w3.org/2000/svg" p-id="42349" width="200" height="200"><path d="M512 34.133333C249.173333 34.133333 34.133333 249.173333 34.133333 512s215.04 477.866667 477.866667 477.866667 477.866667-215.04 477.866667-477.866667S774.826667 34.133333 512 34.133333z m136.533333 397.653334c18.773333 0 34.133333 15.36 34.133334 34.133333s-15.36 34.133333-34.133334 34.133333h-102.4v68.266667h102.4c18.773333 0 34.133333 15.36 34.133334 34.133333s-15.36 34.133333-34.133334 34.133334h-102.4v102.4c0 18.773333-15.36 34.133333-34.133333 34.133333s-34.133333-15.36-34.133333-34.133333v-102.4h-102.4c-18.773333 0-34.133333-15.36-34.133334-34.133334s15.36-34.133333 34.133334-34.133333h102.4v-68.266667h-102.4c-18.773333 0-34.133333-15.36-34.133334-34.133333s15.36-34.133333 34.133334-34.133333h75.093333l-100.693333-100.693334c-13.653333-13.653333-13.653333-34.133333 0-47.786666 13.653333-13.653333 34.133333-13.653333 47.786666 0l110.933334 110.933333 110.933333-110.933333c13.653333-13.653333 34.133333-13.653333 47.786667 0 13.653333 13.653333 13.653333 34.133333 0 47.786666l-100.693334 100.693334H648.533333z" fill="#333333" p-id="42350"></path></svg>