<svg t="1750761965093" class="icon" viewBox="0 0 1024 1024" version="1.1" xmlns="http://www.w3.org/2000/svg" p-id="33101" width="200" height="200"><path d="M560.872727 656.290909H605.090909v-6.981818h-44.218182v6.981818z m-137.309091-304.872727h-93.090909v109.381818h93.090909c27.927273-2.327273 51.2-25.6 53.527273-53.527273-2.327273-30.254545-25.6-53.527273-53.527273-55.854545z m81.454546 244.363636h153.6s4.654545 0 2.327273-4.654545c0-4.654545-6.981818-30.254545-9.309091-41.890909-2.327273-6.981818-9.309091-11.636364-18.618182-11.636364h-102.4c-6.981818 0-13.963636 4.654545-18.618182 11.636364-2.327273 9.309091-9.309091 37.236364-9.309091 41.890909 0 6.981818 2.327273 4.654545 2.327273 4.654545z m9.309091 25.6c-6.981818 0-13.963636 6.981818-13.963637 13.963637s6.981818 13.963636 13.963637 13.963636 13.963636-6.981818 13.963636-13.963636c0-9.309091-6.981818-13.963636-13.963636-13.963637z m46.545454 18.618182H605.090909v-6.981818h-44.218182v6.981818z m88.436364-18.618182c-6.981818 0-13.963636 6.981818-13.963636 13.963637s6.981818 13.963636 13.963636 13.963636 13.963636-6.981818 13.963636-13.963636c0-9.309091-4.654545-13.963636-13.963636-13.963637zM481.745455 67.490909c-239.709091 0-432.872727 193.163636-432.872728 432.872727C48.872727 737.745455 242.036364 930.909091 481.745455 930.909091c74.472727 0 146.618182-18.618182 207.127272-53.527273-9.309091-18.618182-13.963636-39.563636-13.963636-62.836363 0-88.436364 72.145455-158.254545 158.254545-158.254546 16.290909 0 32.581818 2.327273 48.872728 6.981818 20.945455-51.2 32.581818-104.727273 32.581818-162.909091-2.327273-239.709091-195.490909-432.872727-432.872727-432.872727z m-58.181819 451.490909h-93.090909v188.509091h-58.181818V293.236364h160.581818c62.836364 0 114.036364 48.872727 114.036364 111.709091 0 62.836364-51.2 111.709091-114.036364 111.70909-4.654545 2.327273-6.981818 2.327273-9.309091 2.327273z m256 153.6l-4.654545 2.327273v23.272727c0 6.981818-2.327273 9.309091-9.309091 9.309091H651.636364c-6.981818 0-11.636364 0-11.636364-6.981818v-20.945455h-116.363636v18.618182c0 6.981818-4.654545 6.981818-11.636364 6.981818h-16.290909c-6.981818 0-9.309091-2.327273-9.309091-9.309091v-23.272727l-4.654545-2.327273c-4.654545-2.327273-11.636364-11.636364-11.636364-34.90909 0-25.6 2.327273-27.927273 4.654545-32.581819l6.981819-6.981818 20.945454-55.854545c4.654545-9.309091 11.636364-13.963636 23.272727-16.290909h109.381819c9.309091 0 18.618182 6.981818 23.272727 16.290909l20.945454 55.854545 6.981819 6.981818c2.327273 4.654545 4.654545 6.981818 4.654545 32.581819s-4.654545 32.581818-11.636364 37.236363z m-118.690909-46.545454H605.090909v-6.981819h-44.218182v6.981819zM833.163636 742.4c-11.636364 0-20.945455 9.309091-20.945454 20.945455v11.636363h41.890909v-9.309091c0-13.963636-9.309091-23.272727-20.945455-23.272727z m0 60.509091c-9.309091 0-16.290909 6.981818-16.290909 16.290909 0 6.981818 4.654545 13.963636 9.309091 16.290909v23.272727h11.636364v-23.272727c6.981818-2.327273 9.309091-9.309091 9.309091-16.290909 2.327273-9.309091-4.654545-16.290909-13.963637-16.290909z" fill="#040000" p-id="33102"></path><path d="M833.163636 672.581818c-79.127273 0-141.963636 62.836364-141.963636 141.963637s62.836364 141.963636 141.963636 141.963636 141.963636-62.836364 141.963637-141.963636-62.836364-141.963636-141.963637-141.963637z m65.163637 204.8c0 4.654545-4.654545 9.309091-9.309091 9.309091h-107.054546c-4.654545 0-9.309091-4.654545-9.309091-9.309091v-90.763636c0-4.654545 4.654545-9.309091 9.309091-9.309091h16.290909v-11.636364c0-20.945455 16.290909-37.236364 37.236364-37.236363 20.945455 0 37.236364 16.290909 37.236364 37.236363v11.636364h16.290909c4.654545 0 9.309091 4.654545 9.309091 9.309091v90.763636z" fill="#040000" p-id="33103"></path></svg>