<svg t="1750760330220" class="icon" viewBox="0 0 1024 1024" version="1.1" xmlns="http://www.w3.org/2000/svg" p-id="22613" width="200" height="200"><path d="M972.8 491.52l-110.933333-110.933333c-6.826667-6.826667-10.24-15.36-10.24-23.893334v-146.773333c0-18.773333-15.36-34.133333-34.133334-34.133333h-146.773333c-8.533333 0-17.066667-3.413333-23.893333-10.24l-110.933334-110.933334c-13.653333-13.653333-35.84-13.653333-47.786666 0l-110.933334 110.933334c-6.826667 6.826667-15.36 10.24-23.893333 10.24h-146.773333c-18.773333 0-34.133333 15.36-34.133334 34.133333v146.773333c0 8.533333-3.413333 17.066667-10.24 23.893334L51.2 491.52c-13.653333 13.653333-13.653333 34.133333 0 47.786667l110.933333 110.933333c6.826667 6.826667 10.24 15.36 10.24 23.893333v146.773334c0 18.773333 15.36 34.133333 34.133334 34.133333h146.773333c8.533333 0 17.066667 3.413333 23.893333 10.24l102.4 102.4c1.706667 1.706667 5.12 5.12 8.533334 6.826667 22.186667 10.24 46.08 6.826667 61.44-8.533334l98.986666-98.986666c6.826667-6.826667 15.36-10.24 23.893334-10.24H819.2c18.773333 0 34.133333-15.36 34.133333-34.133334v-146.773333c0-8.533333 3.413333-17.066667 10.24-23.893333l110.933334-110.933334c11.946667-15.36 11.946667-35.84-1.706667-49.493333z m-460.8 162.133333c-76.8 0-138.24-61.44-138.24-138.24s61.44-138.24 138.24-138.24 138.24 61.44 138.24 138.24-61.44 138.24-138.24 138.24z" fill="#333333" p-id="22614"></path></svg>