<svg t="1750762115719" class="icon" viewBox="0 0 1024 1024" version="1.1" xmlns="http://www.w3.org/2000/svg" p-id="42515" width="200" height="200"><path d="M791.893333 291.84H375.466667c-15.36 0-29.013333-10.24-32.426667-25.6-3.413333-15.36 1.706667-30.72 15.36-37.546667L670.72 47.786667c17.066667-10.24 37.546667-3.413333 46.08 11.946666l104.106667 180.906667c6.826667 10.24 6.826667 23.893333 0 34.133333-5.12 10.24-17.066667 17.066667-29.013334 17.066667z m-288.426666-68.266667H733.866667l-58.026667-98.986666-172.373333 98.986666zM682.666667 602.453333c0 42.666667 37.546667 78.506667 85.333333 78.506667h221.866667v-157.013333H766.293333c-46.08 0-83.626667 35.84-83.626666 78.506666z" fill="#333333" p-id="42516"></path><path d="M766.293333 749.226667c-83.626667 0-153.6-66.56-153.6-146.773334s68.266667-146.773333 153.6-146.773333H989.866667v-168.96c0-39.253333-32.426667-71.68-69.973334-71.68H104.106667c-39.253333 0-69.973333 32.426667-69.973334 71.68v633.173333C34.133333 957.44 66.56 989.866667 104.106667 989.866667h814.08c39.253333 0 69.973333-32.426667 69.973333-71.68v-168.96h-221.866667z" fill="#333333" p-id="42517"></path></svg>